<?xml version="1.0" encoding="iso-8859-1"?>
<!-- Generator: Adobe Illustrator 16.0.0, SVG Export Plug-In . SVG Version: 6.00 Build 0)  -->
<!DOCTYPE svg PUBLIC "-//W3C//DTD SVG 1.1//EN" "http://www.w3.org/Graphics/SVG/1.1/DTD/svg11.dtd">
<svg xmlns="http://www.w3.org/2000/svg" xmlns:xlink="http://www.w3.org/1999/xlink" version="1.1" id="Capa_1" x="0px" y="0px" width="512px" height="512px" viewBox="0 0 33.936 33.936" style="enable-background:new 0 0 33.936 33.936;" xml:space="preserve">
<g>
	<path d="M30.145,7.739c-0.351-0.067-0.724-0.059-1.093-0.096c-0.515-0.062-0.913-0.311-1.188-0.645   c-0.109-0.138-0.203-0.281-0.271-0.443c0.086,0.011,0.176,0.021,0.269,0.033c0.682,0.077,1.479,0.159,2.026,0.152   c-0.003-0.267,0.022-0.531,0.067-0.81c0.039-0.207,0.1-0.398,0.162-0.586c0.101-0.286,0.199-0.558,0.222-0.858l0.019-0.043   c0.158,0.306,0.188,0.685,0.354,1.016c0.312,0.804,0.482,1.719-0.002,2.479C30.531,7.838,30.344,7.779,30.145,7.739z M29.382,6.368   c0.657-1.534-0.149-2.754-0.687-4.144L28.682,2.28c-0.255,0.913-0.4,1.818-0.244,2.771l-0.6-0.174l-0.562-0.169l-0.834-0.243   c0.004,0.477,0.373,0.99,0.721,1.318c0.035,0.03,0.078,0.059,0.127,0.083c0.171,0.105,0.357,0.183,0.562,0.241   C28.336,6.239,28.886,6.276,29.382,6.368z M27.836,4.557c0.091,0.029,0.175,0.064,0.266,0.101c0.004-0.386-0.109-0.819-0.277-1.222   c-0.147-0.354-0.347-0.689-0.541-0.941c-0.015-0.011-0.024-0.018-0.03-0.029c-0.462-0.375-0.843-0.756-1.392-0.9   c-0.084-0.023-0.177-0.035-0.271-0.046c0.1,0.228,0.191,0.48,0.279,0.738c0.154,0.439,0.314,0.896,0.537,1.255   c0.209,0.378,0.515,0.615,0.865,0.792C27.447,4.399,27.642,4.481,27.836,4.557z M32.148,10.293   c0.307-0.426,0.438-1.121,0.383-1.711c-0.097-0.488-0.258-0.926-0.418-1.34c-0.101-0.246-0.193-0.479-0.281-0.72l-0.034,0.043   c-0.091,0.665-0.558,1.319-0.44,2.029c-0.295-0.038-0.738-0.189-1.203-0.305c-0.291-0.076-0.594-0.132-0.871-0.136   c0.108,0.542,0.451,0.972,0.885,1.28c0.023,0.019,0.048,0.036,0.072,0.049c0.559,0.379,1.312,0.448,1.734,0.999   C32.031,10.431,32.092,10.365,32.148,10.293z M33.087,17.838c0.577-0.592,0.833-1.504,0.849-2.277l-1.619,1.756   c-0.031-0.042-0.062-0.083-0.094-0.132c-0.445-0.604-1.062-1.184-1.393-1.943h-0.028c-0.354,1.434,0.472,2.619,1.115,3.67   c0.118-0.078,0.228-0.166,0.321-0.25C32.537,18.394,32.744,18.108,33.087,17.838z M33.863,13.179   c-0.064-0.107-0.023-0.162-0.066-0.239c-0.373,0.611-1.021,0.97-1.368,1.66c-0.065-0.163-0.147-0.316-0.237-0.468   c-0.332-0.539-0.822-1.04-1.221-1.531c0-0.065-0.037-0.095-0.037-0.095l-0.011,0.03c-0.136,1.498,0.538,2.804,1.292,3.863   c0.043,0.064,0.091,0.138,0.143,0.202C33.303,15.688,33.98,14.607,33.863,13.179z M33.412,11.436   c-0.086-0.554-0.146-1.035-0.258-1.534l-0.871,1.548c-0.043-0.055-0.086-0.107-0.127-0.155c-0.488-0.52-1.205-0.854-1.984-1.136   c-0.012,0.001-0.021-0.005-0.037-0.012c0.016,0.048,0.025,0.097,0.039,0.145c0.256,0.889,0.773,1.433,1.458,2.119   c0.207,0.202,0.392,0.405,0.545,0.627c0.108,0.168,0.202,0.347,0.267,0.546C33.074,13.08,33.514,12.364,33.412,11.436z    M8.025,1.958c0.039-0.043,0.074-0.085,0.108-0.122l-0.065-0.03C8.055,1.812,8.044,1.813,8.025,1.82   C7.443,1.983,6.932,2.254,6.521,2.632c-0.263,0.239-0.482,0.52-0.66,0.848C5.656,4.011,5.632,4.537,5.636,5.043   c0.318-0.016,0.611-0.249,0.905-0.516C6.647,4.423,6.75,4.319,6.862,4.221c0.196-0.268,0.297-0.588,0.455-0.854   C7.523,2.832,7.695,2.364,8.025,1.958z M1.719,12.244l-1.024-1.635L0.63,10.598L0.6,10.61c-0.431,1.367,0.194,2.778,0.903,3.754   c0.096-0.165,0.207-0.317,0.325-0.468c0.649-0.792,1.584-1.406,1.813-2.422c0.029-0.12,0.045-0.24,0.05-0.367   c-0.018,0-0.037,0-0.054,0.006c-0.265,0.045-0.667,0.292-0.96,0.438c-0.336,0.197-0.581,0.405-0.868,0.619   C1.779,12.196,1.747,12.219,1.719,12.244z M1.643,15.067L0,13.837c0.028,1.395,0.823,2.416,1.719,3.346   c0.042-0.14,0.09-0.266,0.142-0.394c0.283-0.655,0.724-1.136,1.012-1.802c0.246-0.51,0.375-1.097,0.267-1.625l-0.085,0.019   c-0.218,0.479-0.854,0.866-1.216,1.347C1.759,14.831,1.689,14.946,1.643,15.067z M3.747,7.644c0.02-0.429-0.012-0.965-0.166-1.434   c-0.1-0.294-0.248-0.559-0.469-0.754C2.5,6.602,2.554,7.91,2.924,9.101c0.217-0.116,0.451-0.21,0.686-0.297   C4.102,8.63,4.626,8.48,5.081,8.22C5.44,8.017,5.757,7.749,5.993,7.342C5.711,7.327,5.389,7.318,5.071,7.34   C4.609,7.369,4.139,7.454,3.747,7.644z M5.327,5.565c0.015-0.635-0.045-1.395-0.299-2.019C4.946,3.342,4.841,3.15,4.715,2.984   l-0.03,0.001c-0.564,1.254-0.671,2.51-0.457,3.846C4.189,6.964,4.207,7.018,4.191,7.115c0.244-0.143,0.551-0.218,0.875-0.287   c0.146-0.032,0.297-0.057,0.445-0.09c0.409-0.096,0.752-0.268,1.05-0.506c0.317-0.246,0.573-0.562,0.806-0.908   C7.377,5.208,7.42,5.208,7.455,5.13L6.551,5.315L5.327,5.565z M3.614,9.304L2.563,9.647c-0.062-0.796-0.49-1.425-0.809-2.12   c0-0.005,0-0.005,0-0.005L1.733,7.564c-0.522,1.332-0.693,2.806,0.066,3.99c0.014,0.024,0.025,0.042,0.044,0.062   c0.342-0.191,0.72-0.485,1.091-0.688c0.275-0.208,0.471-0.439,0.691-0.641c0.064-0.055,0.132-0.11,0.197-0.165   C4.15,9.763,4.343,9.428,4.551,9.004L3.614,9.304z M1.511,22.169c0.111,0.236,0.252,0.439,0.416,0.621   c0.479,0.514,1.15,0.83,1.854,1.117c0.066,0.031,0.133,0.055,0.198,0.084c0.402,0.072,0.744,0.137,1.015,0.387   c-0.568-1.219,0.775-2.758-0.159-3.854c-0.056-0.088-0.123-0.154-0.177-0.195L4.644,20.37l-0.792,2.346   c-0.03-0.021-0.055-0.037-0.085-0.049c-0.521-0.289-1.169-0.414-1.847-0.463c-0.071-0.004-0.138-0.01-0.21-0.01   C1.63,22.155,1.589,22.155,1.511,22.169z M7.3,29.028c0.22,0.371,0.596,0.6,1.037,0.727c0.104,0.021,0.207,0.045,0.311,0.068   c0.698,0.082,1.396-0.186,2.082-0.365c0.299-0.084,0.608-0.146,0.908-0.162c-0.324-0.625-0.588-1.314-0.932-1.926   c-0.37-0.666-0.842-1.238-1.586-1.557l-0.019,0.012c0.657,0.682,0.25,1.881,0.825,2.59c0.029,0.055,0.029,0.09,0.029,0.09   c-0.541,0.055-1.088,0.207-1.631,0.387c-0.051,0.02-0.111,0.037-0.166,0.061C7.842,28.983,7.566,29.052,7.3,29.028z M32.55,20.479   c0.519-0.586,0.726-1.438,0.884-2.301c-0.354,0.475-0.763,0.744-1.188,1.016c-0.203,0.127-0.405,0.264-0.609,0.408   c-0.24-0.461-0.527-0.855-0.799-1.287c-0.146-0.227-0.174-0.486-0.299-0.727l-0.034,0.021c-0.438,1.213-0.124,2.471,0.366,3.617   c0.48-0.066,0.998-0.242,1.394-0.512C32.363,20.644,32.46,20.565,32.55,20.479z M3.788,24.71c-0.156-0.018-0.314-0.033-0.459-0.051   c0.123,0.242,0.283,0.451,0.467,0.631c0.396,0.387,0.911,0.641,1.486,0.83c0.308,0.102,0.641,0.182,0.979,0.258   c0.181,0.004,0.356,0.02,0.524,0.043c0.164,0.02,0.32,0.043,0.483,0.078c-0.271-0.506-0.383-1.111-0.502-1.709   c-0.173-0.824-0.381-1.617-1.067-2.131L5.687,22.69c0.049,0.791-0.314,1.562-0.041,2.355c-0.121-0.043-0.246-0.078-0.38-0.113   C4.805,24.823,4.282,24.765,3.788,24.71z M0.132,16.405c-0.07,0.706,0.257,1.498,0.716,1.957c0.365,0.297,0.706,0.639,1.04,0.947   c0.178,0.166,0.355,0.322,0.537,0.463c0.075-1.369,1.546-2.416,0.787-3.957l-0.047,0.001l-1.27,2.003   C1.888,17.808,1.883,17.8,1.87,17.79c-0.444-0.422-0.842-0.919-1.483-1.189C0.282,16.523,0.228,16.445,0.132,16.405z M1.895,19.841   c-0.313-0.152-0.655-0.275-0.999-0.422c0.084,0.637,0.356,1.32,0.868,1.768c0.052,0.037,0.099,0.066,0.146,0.102   c0.543,0.346,1.164,0.506,1.641,0.953c0.077-0.164,0.143-0.326,0.206-0.498c0.392-1.041,0.59-2.242,0.112-3.299   c-0.072-0.082-0.114-0.131-0.152-0.209c0-0.006-0.006-0.018-0.014-0.021L3.65,18.183l-0.022,0.031   c-0.017,0.832-0.502,1.555-0.798,2.289C2.556,20.2,2.236,20.001,1.895,19.841z M5.252,27.13c-0.007,0.055,0.013,0.107,0.043,0.162   c0.116,0.203,0.426,0.369,0.597,0.494c0.299,0.164,0.602,0.254,0.914,0.291c0.501,0.062,1.014-0.006,1.514-0.053   c0.355-0.035,0.705-0.062,1.037-0.043c-0.438-0.832-0.543-1.98-1.07-2.779c-0.176-0.273-0.402-0.502-0.705-0.668   c-0.176-0.027-0.242-0.131-0.399-0.127c0.46,0.658,0.129,1.717,0.624,2.432c0.014,0.053,0.014,0.088,0.002,0.145   c-0.345-0.094-0.683-0.076-1.014-0.031c-0.5,0.078-0.993,0.223-1.499,0.186C5.277,27.13,5.264,27.13,5.252,27.13z M30.322,23.358   c0.729-0.307,1.444-0.605,1.957-1.176c0.153-0.17,0.287-0.363,0.397-0.59c0.095-0.107,0.118-0.121,0.161-0.211   c-0.169,0.02-0.361,0.039-0.566,0.07c-0.554,0.084-1.203,0.227-1.684,0.484l-0.293-0.902l-0.422-1.303h-0.028   c-0.831,1.082-0.405,2.506-0.091,3.758c0.021,0.055,0.021,0.092,0.021,0.092C29.951,23.507,30.142,23.431,30.322,23.358z    M10.738,30.181c-0.275,0.154-0.557,0.303-0.906,0.383c0.255,0.186,0.576,0.314,0.916,0.383c0.471,0.098,0.982,0.086,1.41-0.021   c0.686-0.184,1.022-0.783,1.729-0.779c0.798,0.219,1.645,0.314,2.364,0.65c-0.58,0.393-1.611,0.367-2.138,0.873l0.353,0.66   c0.012,0.035,0.099,0.053,0.188,0.088c0.988-0.367,1.986-1.254,3.079-1.318c0.812,0.43,1.756,0.752,2.569,1.166   c0.306-0.15,0.366-0.523,0.467-0.814c0-0.055-0.002-0.121-0.002-0.121l-2.165-0.65c0.568-0.352,1.438-0.611,2.229-0.621   c0.941,0.537,2.107,0.838,3.123,0.521c0.267-0.084,0.522-0.205,0.765-0.377c0.118-0.123,0.194-0.178,0.306-0.203   c-0.373,0.041-0.725-0.01-1.074-0.098c-0.604-0.148-1.188-0.414-1.811-0.559c0.337-0.576,0.885-1.359,0.994-2.32   c0.064-0.049,0.094-0.115,0.094-0.201c-0.021,0-0.029,0-0.043-0.012c-1.375,0.457-1.716,1.877-2.803,2.777   c-2.137,1.055-4.587,0.871-6.612-0.193c-0.674-0.934-1.343-1.998-2.486-2.354c0.119,0.443,0.345,1.068,0.397,1.625   c0.215,0.314,0.351,0.656,0.62,0.836c0,0.043,0,0.084-0.023,0.107C11.648,29.62,11.21,29.917,10.738,30.181z M29.777,25.405   c0.221-0.16,0.399-0.363,0.561-0.572c0.257-0.328,0.48-0.662,0.805-0.871l-0.812,0.152l-1.196,0.227l-0.293-2.463l-0.063,0.002   c-0.365,0.293-0.584,0.711-0.729,1.176c-0.244,0.781-0.295,1.725-0.532,2.518c-0.018,0.047-0.027,0.096-0.046,0.146   c0.011,0,0.03,0,0.048,0c0.17,0.016,0.361,0.031,0.561,0.041C28.671,25.78,29.334,25.741,29.777,25.405z M26.154,27.667   c0.459,0.002,0.928-0.064,1.379-0.195c0.191-0.057,0.379-0.119,0.56-0.193c0.485-0.205,0.924-0.48,1.265-0.805   c-0.397,0.004-0.834-0.117-1.274-0.209c-0.188-0.045-0.378-0.08-0.563-0.096c-0.191-0.021-0.379-0.025-0.564,0   c-0.021-0.664,0.049-1.586,0.307-2.219c-0.516,0.242-0.865,0.633-1.134,1.094c-0.427,0.738-0.632,1.672-0.962,2.496   C25.478,27.626,25.816,27.671,26.154,27.667z M23.941,29.321c0.764,0.215,1.543,0.338,2.229-0.104   c0.048-0.031,0.096-0.062,0.139-0.098c0.316-0.203,0.578-0.395,0.845-0.631c-0.295,0.104-0.642,0.107-0.99,0.059   c-0.514-0.072-1.045-0.26-1.518-0.406c0.236-0.809,0.084-1.682,0.524-2.441l-0.03,0.002c-0.558,0.203-0.932,0.59-1.229,1.059   c-0.426,0.674-0.682,1.52-1.047,2.242C23.213,29.095,23.576,29.216,23.941,29.321z M18.197,14.584   c0.261-0.09,0.451-0.227,0.584-0.408c0.131-0.181,0.193-0.393,0.193-0.632c0-0.248-0.061-0.458-0.186-0.634   c-0.121-0.176-0.303-0.301-0.536-0.375c-0.231-0.075-0.651-0.112-1.255-0.112h-1.03v2.294h1.031   C17.541,14.718,17.941,14.675,18.197,14.584z M18.885,18.239c0.186-0.232,0.275-0.515,0.275-0.841c0-0.279-0.064-0.516-0.194-0.709   c-0.132-0.191-0.326-0.339-0.587-0.438c-0.262-0.099-0.657-0.148-1.191-0.148h-1.219v2.041c0.005,0.287,0.015,0.455,0.033,0.506   c0.021,0.062,0.059,0.105,0.11,0.133c0.051,0.021,0.19,0.037,0.42,0.037h0.688c0.399,0,0.729-0.037,0.992-0.111   C18.477,18.632,18.699,18.476,18.885,18.239z M28.361,15.467c0,6.29-5.104,11.394-11.396,11.394   c-6.29,0-11.391-5.104-11.391-11.394c0-6.292,5.101-11.392,11.391-11.392C23.258,4.075,28.361,9.175,28.361,15.467z M24.992,10.996   c0.404,0.693,0.717,1.436,0.928,2.207c0.049,0.182,0.213,0.301,0.395,0.301c0.034,0,0.07-0.004,0.106-0.015   c0.217-0.06,0.345-0.283,0.284-0.501c-0.229-0.84-0.566-1.649-1.008-2.404c-0.112-0.195-0.362-0.26-0.559-0.146   C24.947,10.552,24.88,10.801,24.992,10.996z M21.625,7.652c0.691,0.396,1.334,0.886,1.902,1.452   c0.08,0.078,0.186,0.117,0.289,0.117c0.104,0,0.209-0.04,0.289-0.121c0.158-0.159,0.156-0.418-0.003-0.576   c-0.62-0.616-1.317-1.147-2.073-1.581c-0.194-0.112-0.442-0.046-0.557,0.149C21.363,7.29,21.43,7.539,21.625,7.652z M16.642,6.031   c0,0.226,0.197,0.408,0.425,0.408c0.795,0,1.584,0.102,2.346,0.302c0.035,0.009,0.07,0.014,0.104,0.014   c0.182,0,0.346-0.121,0.395-0.304c0.06-0.218-0.07-0.441-0.289-0.499c-0.828-0.219-1.688-0.33-2.555-0.33h-0.029   C16.811,5.623,16.642,5.806,16.642,6.031z M11.898,7.532c0.076,0.13,0.213,0.203,0.354,0.203c0.07,0,0.142-0.019,0.205-0.056   c0.693-0.403,1.437-0.714,2.207-0.922c0.219-0.059,0.348-0.283,0.287-0.5c-0.058-0.218-0.282-0.347-0.498-0.288   c-0.842,0.228-1.651,0.565-2.406,1.005C11.851,7.088,11.784,7.337,11.898,7.532z M8.551,11.195   c0.063,0.037,0.134,0.054,0.203,0.054c0.141,0,0.278-0.073,0.354-0.205c0.397-0.693,0.887-1.333,1.453-1.902   c0.158-0.159,0.158-0.418-0.002-0.576c-0.158-0.159-0.418-0.159-0.576,0.001c-0.617,0.619-1.148,1.315-1.584,2.07   C8.286,10.833,8.357,11.082,8.551,11.195z M7.484,16.03c0.226,0,0.407-0.192,0.407-0.417c0-0.799,0.103-1.591,0.306-2.355   c0.058-0.218-0.072-0.44-0.291-0.499c-0.219-0.058-0.439,0.072-0.498,0.29c-0.222,0.833-0.332,1.695-0.332,2.564v0.02   C7.073,15.858,7.257,16.03,7.484,16.03z M9.125,20.214c-0.403-0.695-0.714-1.439-0.921-2.209c-0.06-0.219-0.284-0.348-0.5-0.288   c-0.219,0.06-0.348,0.282-0.288,0.501c0.227,0.84,0.563,1.648,1.003,2.406c0.074,0.131,0.213,0.201,0.354,0.201   c0.069,0,0.141-0.018,0.204-0.055C9.172,20.657,9.239,20.407,9.125,20.214z M12.488,23.567c-0.692-0.4-1.332-0.891-1.9-1.457   c-0.158-0.158-0.418-0.158-0.577,0.002c-0.158,0.16-0.158,0.418,0.002,0.576c0.617,0.615,1.313,1.148,2.069,1.586   c0.063,0.035,0.134,0.053,0.203,0.053c0.142,0,0.277-0.072,0.354-0.203C12.75,23.929,12.683,23.679,12.488,23.567z M17.478,25.196   c0-0.227-0.188-0.408-0.411-0.408c-0.803,0-1.599-0.104-2.368-0.307c-0.221-0.059-0.439,0.072-0.498,0.289   c-0.058,0.219,0.072,0.441,0.291,0.498c0.836,0.223,1.703,0.334,2.575,0.334h0.01C17.3,25.603,17.478,25.421,17.478,25.196z    M17.576,20.319v1.551h1.595v-1.682c0.269-0.053,0.503-0.117,0.704-0.197c0.551-0.221,0.977-0.541,1.275-0.963   c0.301-0.418,0.451-0.879,0.451-1.379c0-0.417-0.099-0.798-0.297-1.138c-0.197-0.34-0.466-0.604-0.802-0.793   c-0.234-0.135-0.572-0.26-1.013-0.371c0.408-0.14,0.74-0.315,0.99-0.529c0.252-0.214,0.441-0.46,0.575-0.738   c0.134-0.279,0.199-0.575,0.199-0.885c0-0.428-0.126-0.819-0.376-1.179c-0.253-0.357-0.612-0.632-1.081-0.821   c-0.183-0.076-0.396-0.131-0.631-0.177V9.357h-1.595v1.55h-1.024v-1.55h-1.594v1.55H12.52v1.302h0.372   c0.247,0,0.414,0.023,0.503,0.068c0.088,0.044,0.149,0.105,0.186,0.182c0.037,0.076,0.054,0.255,0.054,0.532v5.25   c0,0.273-0.017,0.451-0.054,0.531c-0.035,0.078-0.098,0.139-0.186,0.182c-0.089,0.045-0.256,0.064-0.503,0.064H12.52v1.301h2.434   v1.549h1.594v-1.549h0.907C17.5,20.321,17.535,20.319,17.576,20.319z M22.215,23.704c-0.114-0.195-0.364-0.262-0.559-0.146   c-0.692,0.402-1.438,0.711-2.211,0.918c-0.218,0.059-0.348,0.281-0.289,0.5c0.052,0.182,0.215,0.303,0.396,0.303   c0.035,0,0.068-0.004,0.104-0.014c0.844-0.229,1.652-0.562,2.408-1C22.261,24.149,22.326,23.901,22.215,23.704z M25.57,20.05   c-0.194-0.111-0.442-0.047-0.558,0.146c-0.399,0.693-0.894,1.332-1.459,1.898c-0.159,0.16-0.159,0.418,0,0.578   c0.08,0.08,0.187,0.119,0.289,0.119s0.209-0.039,0.288-0.119c0.617-0.619,1.15-1.314,1.588-2.068   C25.83,20.409,25.765,20.159,25.57,20.05z M27.054,15.59l-0.407-0.016h0.407c0-0.227-0.185-0.39-0.405-0.39   c-0.228,0-0.408,0.202-0.408,0.429c0,0.805-0.104,1.604-0.312,2.374c-0.06,0.219,0.071,0.441,0.289,0.5   c0.035,0.01,0.069,0.016,0.104,0.016c0.182,0,0.346-0.121,0.396-0.305C26.943,17.359,27.055,16.49,27.054,15.59z" fill="#006DF0"/>
</g>
<g>
</g>
<g>
</g>
<g>
</g>
<g>
</g>
<g>
</g>
<g>
</g>
<g>
</g>
<g>
</g>
<g>
</g>
<g>
</g>
<g>
</g>
<g>
</g>
<g>
</g>
<g>
</g>
<g>
</g>
</svg>
