<?xml version="1.0" encoding="iso-8859-1"?>
<!-- Generator: Adobe Illustrator 19.0.0, SVG Export Plug-In . SVG Version: 6.00 Build 0)  -->
<svg xmlns="http://www.w3.org/2000/svg" xmlns:xlink="http://www.w3.org/1999/xlink" version="1.1" id="Layer_1" x="0px" y="0px" viewBox="0 0 512 512" style="enable-background:new 0 0 512 512;" xml:space="preserve" width="512px" height="512px">
<g>
	<g>
		<g>
			<path d="M458.666,90.665c-33.292,0-58.558-19.484-85.312-40.109C342.619,26.859,307.784,0,256,0s-86.619,26.859-117.356,50.556     c-26.752,20.625-52.019,40.109-85.311,40.109c-5.889,0-10.667,4.776-10.667,10.667c0,124.545,15.511,207.475,50.294,268.894     c34.538,60.988,85.951,98.917,157.706,140.345c1.65,0.953,3.491,1.429,5.333,1.429c1.842,0,3.683-0.477,5.333-1.429     c71.756-41.428,123.168-79.356,157.708-140.345c34.781-61.419,50.292-144.349,50.292-268.894     C469.333,95.441,464.555,90.665,458.666,90.665z M256,489C127.334,413.973,65.719,349.338,64.036,111.463     c35.144-3.541,61.79-24.086,87.636-44.013C181.077,44.779,211.485,21.333,256,21.333c44.514,0,74.921,23.444,104.328,46.117     c25.844,19.928,52.492,40.471,87.636,44.013C446.281,349.338,384.666,413.973,256,489z" fill="#006DF0"/>
			<path d="M129.97,121.822c-2.746-5.213-9.196-7.213-14.409-4.468c-1.325,0.698-2.669,1.383-4.017,2.048     c-5.285,2.602-7.46,8.996-4.859,14.282c1.856,3.771,5.642,5.956,9.578,5.956c1.581,0,3.189-0.352,4.704-1.098     c1.523-0.75,3.038-1.523,4.533-2.31C130.714,133.485,132.714,127.035,129.97,121.822z" fill="#006DF0"/>
			<path d="M411.584,205.466c0.327,0.029,0.654,0.044,0.977,0.044c5.454,0,10.109-4.162,10.61-9.702     c0.125-1.362,0.243-2.73,0.358-4.092c0.498-5.871-3.858-11.032-9.729-11.53c-5.862-0.505-11.032,3.858-11.528,9.729     c-0.112,1.318-0.227,2.641-0.348,3.961C401.393,199.744,405.717,204.933,411.584,205.466z" fill="#006DF0"/>
			<path d="M151.053,118.128c2.162,0,4.346-0.656,6.234-2.021c6.179-4.461,12.198-9.042,18.017-13.475     c27.227-20.73,50.74-38.634,80.696-38.634c5.891,0,10.667-4.776,10.667-10.667c0-5.889-4.776-10.667-10.667-10.667     c-37.154,0-64.582,20.883-93.62,42.995c-5.714,4.352-11.622,8.85-17.581,13.152c-4.778,3.45-5.852,10.116-2.404,14.892     C144.48,116.593,147.743,118.128,151.053,118.128z" fill="#006DF0"/>
			<path d="M256,439.289c-27.298-16.831-60.269-39.432-84.991-68.578c-3.81-4.494-10.542-5.045-15.034-1.237     c-4.494,3.81-5.047,10.542-1.237,15.036c28.402,33.489,66.08,58.423,95.73,76.405c0.054,0.031,0.112,0.054,0.166,0.085     c0.256,0.148,0.518,0.277,0.785,0.404c0.171,0.081,0.341,0.171,0.514,0.242c0.24,0.098,0.483,0.175,0.73,0.256     c0.206,0.068,0.409,0.146,0.617,0.201c0.223,0.059,0.45,0.094,0.675,0.138c0.227,0.046,0.454,0.102,0.684,0.131     c0.323,0.042,0.647,0.052,0.975,0.065c0.125,0.004,0.25,0.025,0.375,0.025c0.004,0,0.008,0,0.011,0c0.004,0,0.009,0,0.011,0     c0.125,0,0.25-0.021,0.375-0.025c0.327-0.013,0.654-0.022,0.977-0.065c0.227-0.029,0.45-0.085,0.675-0.129     c0.229-0.044,0.459-0.079,0.684-0.14c0.206-0.054,0.409-0.131,0.612-0.198c0.245-0.081,0.492-0.158,0.734-0.258     c0.173-0.07,0.341-0.16,0.512-0.242c0.267-0.127,0.531-0.256,0.785-0.404c0.057-0.031,0.112-0.054,0.166-0.085     c29.65-17.981,67.327-42.914,95.73-76.407c32.388-38.201,52.803-89.896,62.409-158.041c0.822-5.834-3.24-11.227-9.073-12.05     c-5.84-0.821-11.229,3.24-12.052,9.073c-9.027,64.031-27.852,112.189-57.555,147.223     C316.271,399.857,283.303,422.458,256,439.289z" fill="#006DF0"/>
			<path d="M324.842,133.445L213.567,244.719l-26.404-26.407c-6.531-6.529-15.237-10.125-24.516-10.125     c-9.281,0-17.987,3.596-24.521,10.127c-13.513,13.521-13.513,35.517,0.004,49.034l50.997,50.99l0.442,0.435     c0.065,0.063,0.131,0.125,0.196,0.188l0.448,0.417c0.079,0.073,0.158,0.146,0.24,0.216l0.459,0.402     c0.07,0.063,0.142,0.123,0.214,0.183l0.465,0.385c0.052,0.046,0.107,0.087,0.16,0.131l0.473,0.379     c0.087,0.069,0.175,0.138,0.265,0.204l0.485,0.365c0.068,0.05,0.135,0.1,0.204,0.148l0.487,0.348     c0.073,0.052,0.146,0.102,0.219,0.151l0.496,0.336c0.079,0.052,0.158,0.105,0.238,0.156l0.502,0.321     c0.068,0.042,0.135,0.085,0.204,0.125l0.509,0.308c0.068,0.042,0.135,0.083,0.204,0.123l0.512,0.293     c0.1,0.059,0.201,0.115,0.302,0.169l0.521,0.277c0.054,0.029,0.109,0.059,0.164,0.085l0.525,0.269     c0.092,0.048,0.186,0.094,0.279,0.14l0.531,0.252c0.075,0.035,0.15,0.068,0.225,0.105l0.271,0.121     c0.19,0.092,0.383,0.177,0.581,0.258l0.542,0.221c0.05,0.021,0.098,0.039,0.148,0.059l0.544,0.212     c0.081,0.033,0.164,0.065,0.247,0.096l0.553,0.201c0.087,0.031,0.177,0.063,0.267,0.092l0.267,0.09     c0.181,0.067,0.365,0.127,0.553,0.183l0.555,0.169c0.079,0.022,0.158,0.048,0.238,0.068l0.56,0.157     c0.077,0.021,0.155,0.042,0.234,0.063l0.564,0.144c0.075,0.019,0.153,0.037,0.229,0.057l0.564,0.129     c0.079,0.019,0.16,0.037,0.242,0.054l0.564,0.116c0.109,0.023,0.217,0.042,0.325,0.063l0.279,0.048     c0.166,0.033,0.335,0.065,0.507,0.09l0.569,0.087c0.085,0.015,0.171,0.025,0.256,0.037l0.573,0.073     c0.081,0.011,0.164,0.021,0.245,0.029l0.271,0.029c0.179,0.023,0.358,0.044,0.54,0.059l0.577,0.048     c0.109,0.009,0.217,0.017,0.325,0.021l0.271,0.015c0.177,0.015,0.356,0.025,0.535,0.029l0.577,0.019     c0.059,0.002,0.114,0.002,0.173,0.004l0.573,0.008c0.052,0,0.102,0,0.155,0c0.052,0,0.102,0,0.155,0l0.577-0.008     c0.059-0.002,0.114-0.002,0.173-0.004l0.579-0.019c0.179-0.004,0.358-0.015,0.535-0.029l0.271-0.015     c0.111-0.006,0.221-0.013,0.332-0.022l0.573-0.048c0.179-0.015,0.356-0.033,0.533-0.057l0.271-0.029     c0.079-0.008,0.158-0.017,0.236-0.027l0.577-0.075c0.09-0.011,0.179-0.023,0.267-0.037l0.569-0.087     c0.175-0.027,0.35-0.059,0.521-0.094l0.273-0.048c0.107-0.017,0.212-0.037,0.317-0.061l0.562-0.116     c0.073-0.015,0.146-0.029,0.219-0.046l0.569-0.131c0.09-0.021,0.179-0.042,0.269-0.065l0.56-0.144     c0.075-0.019,0.148-0.039,0.221-0.061l0.558-0.156c0.077-0.021,0.156-0.044,0.231-0.067l0.556-0.169     c0.175-0.054,0.35-0.111,0.521-0.173l0.275-0.09c0.098-0.033,0.196-0.067,0.293-0.102l0.553-0.201     c0.083-0.031,0.166-0.063,0.247-0.096l0.544-0.212c0.061-0.023,0.121-0.048,0.181-0.073l0.538-0.221     c0.173-0.07,0.343-0.148,0.511-0.227l0.277-0.123c0.09-0.039,0.179-0.081,0.269-0.123l0.529-0.252     c0.07-0.033,0.142-0.069,0.212-0.105l0.525-0.265c0.169-0.085,0.337-0.175,0.5-0.269l0.273-0.146     c0.077-0.042,0.155-0.085,0.229-0.129l0.516-0.293c0.083-0.048,0.164-0.096,0.245-0.146l0.509-0.308     c0.079-0.048,0.158-0.098,0.238-0.148l0.5-0.321c0.057-0.035,0.112-0.073,0.166-0.111l0.5-0.334     c0.085-0.059,0.171-0.116,0.254-0.177l0.487-0.348c0.083-0.059,0.166-0.118,0.247-0.181l0.481-0.365     c0.059-0.046,0.116-0.09,0.175-0.135l0.473-0.375c0.125-0.098,0.247-0.201,0.369-0.304l0.269-0.223     c0.094-0.077,0.188-0.156,0.277-0.236l0.457-0.404c0.061-0.052,0.118-0.105,0.177-0.158l0.45-0.417     c0.067-0.061,0.131-0.123,0.196-0.186l0.442-0.429c0.098-0.094,0.192-0.19,0.284-0.286l135.62-135.618     c13.515-13.521,13.511-35.517-0.008-49.03c-6.529-6.529-15.235-10.125-24.514-10.125     C340.08,123.319,331.373,126.915,324.842,133.445z M358.792,167.391l-135.794,135.79c-0.022,0.025-0.048,0.048-0.07,0.07     l-0.992,0.883c-0.011,0.009-0.022,0.018-0.035,0.029l-1.268,0.898l-1.802,0.935c-0.004,0.002-0.011,0.004-0.015,0.006     l-1.194,0.437c-0.013,0.004-0.025,0.009-0.037,0.013l-1.842,0.431c-0.021,0.004-0.044,0.008-0.067,0.013l-0.923,0.11     c-0.022,0.004-0.046,0.006-0.067,0.009l-0.523,0.031c-0.022,0-0.044,0.002-0.067,0.004l-0.529,0.011l-0.335-0.006l-0.19-0.004     c-0.022-0.002-0.046-0.004-0.068-0.004l-0.533-0.031c-0.019-0.002-0.039-0.004-0.061-0.009l-0.918-0.11     c-0.027-0.004-0.052-0.011-0.079-0.015l-1.836-0.429c-0.002,0-0.006-0.002-0.009-0.002l-1.047-0.379l-2.004-1.021l-1.844-1.388     l-51.43-51.402c-5.198-5.2-5.198-13.665,0-18.865c2.5-2.5,5.85-3.877,9.434-3.877c3.581,0,6.931,1.377,9.432,3.875l33.946,33.95     c2,2.002,4.713,3.125,7.541,3.125s5.541-1.123,7.544-3.123l118.82-118.817c2.5-2.5,5.85-3.877,9.429-3.877     c3.581,0,6.929,1.377,9.432,3.879C363.988,153.73,363.99,162.191,358.792,167.391z" fill="#006DF0"/>
		</g>
	</g>
</g>
<g>
</g>
<g>
</g>
<g>
</g>
<g>
</g>
<g>
</g>
<g>
</g>
<g>
</g>
<g>
</g>
<g>
</g>
<g>
</g>
<g>
</g>
<g>
</g>
<g>
</g>
<g>
</g>
<g>
</g>
</svg>
